Radio-Canada-Light-slant-8.ufo
<glyph name="plus" format="1">
  <advance width="660"/>
  <unicode hex="002B"/>
  <outline>
    <contour>
      <point x="145.96223952672895" y="263.0" type="line"/>
      <point x="587.9622395267289" y="263.0" type="line"/>
      <point x="595.5514446006581" y="317.0" type="line"/>
      <point x="153.55144460065807" y="317.0" type="line"/>
    </contour>
    <contour>
      <point x="311.8378584291674" y="70.0" type="line"/>
      <point x="367.8378584291674" y="70.0" type="line"/>
      <point x="429.6758256982196" y="510.0" type="line"/>
      <point x="373.6758256982196" y="510.0" type="line"/>
    </contour>
  </outline>
</glyph>
<glyph name="period" format="1">
  <advance width="216"/>
  <unicode hex="002E"/>
  <outline>
    <contour>
      <point x="70.05947004928609" y="36.0" type="curve" smooth="yes"/>
      <point x="66.68649001642869" y="12.0"/>
      <point x="82.87567332238086" y="-8.0"/>
      <point x="106.87567332238086" y="-8.0" type="curve" smooth="yes"/>
      <point x="131.87567332238086" y="-8.0"/>
      <point x="152.6864900164287" y="12.0"/>
      <point x="156.0594700492861" y="36.0" type="curve" smooth="yes"/>
      <point x="159.57299091684587" y="61.0"/>
      <point x="144.3838076108937" y="81.0"/>
      <point x="119.38380761089371" y="81.0" type="curve" smooth="yes"/>
      <point x="95.38380761089371" y="81.0"/>
      <point x="73.57299091684588" y="61.0"/>
    </contour>
  </outline>
</glyph>
<glyph name="zero" format="1">
  <advance width="660"/>
  <unicode hex="0030"/>
  <outline>
    <contour>
      <point x="125.48658797232504" y="345.0" type="curve" smooth="yes"/>
      <point x="91.6162468090487" y="104.0"/>
      <point x="193.87567332238086" y="-8.0"/>
      <point x="328.87567332238086" y="-8.0" type="curve" smooth="yes"/>
      <point x="463.87567332238086" y="-8.0"/>
      <point x="597.6162468090487" y="104.0"/>
      <point x="631.4865879723251" y="345.0" type="curve" smooth="yes"/>
      <point x="665.3569291356014" y="586.0"/>
      <point x="563.0975026222692" y="698.0"/>
      <point x="428.0975026222692" y="698.0" type="curve" smooth="yes"/>
      <point x="293.0975026222692" y="698.0"/>
      <point x="159.35692913560138" y="586.0"/>
    </contour>
    <contour>
      <point x="189.48658797232503" y="345.0" type="curve" smooth="yes"/>
      <point x="218.71908159042246" y="553.0"/>
      <point x="312.2334141746677" y="641.0"/>
      <point x="420.0866750442329" y="641.0" type="curve" smooth="yes"/>
      <point x="527.9399359137982" y="641.0"/>
      <point x="596.7190815904224" y="553.0"/>
      <point x="567.4865879723251" y="345.0" type="curve" smooth="yes"/>
      <point x="538.2540943542276" y="137.0"/>
      <point x="444.7397617699824" y="49.0"/>
      <point x="336.88650090041716" y="49.0" type="curve" smooth="yes"/>
      <point x="229.03324003085197" y="49.0"/>
      <point x="160.25409435422762" y="137.0"/>
    </contour>
  </outline>
</glyph>
<glyph name="five" format="1">
  <advance width="660"/>
  <unicode hex="0035"/>
  <outline>
    <contour>
      <point x="111.80543011500087" y="84.0" type="line"/>
      <point x="162.232439198155" y="23.0"/>
      <point x="228.87567332238086" y="-8.0"/>
      <point x="317.87567332238086" y="-8.0" type="curve" smooth="yes"/>
      <point x="448.87567332238086" y="-8.0"/>
      <point x="569.4162359250603" y="67.0"/>
      <point x="588.6703302792879" y="204.0" type="curve"/>
      <point x="607.5028021294083" y="338.0"/>
      <point x="511.0271505750044" y="420.0"/>
      <point x="395.0271505750044" y="420.0" type="curve"/>
      <point x="339.0271505750044" y="420.0"/>
      <point x="282.9190380544685" y="405.0"/>
      <point x="228.421731343992" y="373.0" type="curve"/>
      <point x="212.55144460065807" y="317.0" type="line"/>
      <point x="262.0487513111346" y="349.0"/>
      <point x="315.1568638316705" y="364.0"/>
      <point x="371.1568638316705" y="364.0" type="curve"/>
      <point x="474.1568638316705" y="364.0"/>
      <point x="538.4433320801222" y="302.0"/>
      <point x="524.6703302792879" y="204.0" type="curve"/>
      <point x="510.61624680904873" y="104.0"/>
      <point x="427.74596006571477" y="48.0"/>
      <point x="325.74596006571477" y="48.0" type="curve" smooth="yes"/>
      <point x="253.7459600657148" y="48.0"/>
      <point x="198.96218510678654" y="78.0"/>
      <point x="161.8486860072037" y="127.0" type="curve"/>
    </contour>
    <contour>
      <point x="185.5028021294083" y="338.0" type="line"/>
      <point x="212.55144460065807" y="317.0" type="line"/>
      <point x="238.6433429641107" y="339.0" type="line"/>
      <point x="311.97317594465005" y="690.0" type="line"/>
      <point x="257.97317594465005" y="690.0" type="line"/>
    </contour>
    <contour>
      <point x="265.97317594465005" y="690.0" type="line"/>
      <point x="288.10288920131615" y="634.0" type="line"/>
      <point x="605.1028892013162" y="634.0" type="line"/>
      <point x="612.97317594465" y="690.0" type="line"/>
    </contour>
  </outline>
</glyph>
<glyph name="equal" format="1">
  <advance width="660"/>
  <unicode hex="003D"/>
  <outline>
    <contour>
      <point x="130.5027477094659" y="153.0" type="line"/>
      <point x="572.5027477094659" y="153.0" type="line"/>
      <point x="580.0919527833951" y="207.0" type="line"/>
      <point x="138.09195278339502" y="207.0" type="line"/>
    </contour>
    <contour>
      <point x="161.421731343992" y="373.0" type="line"/>
      <point x="603.421731343992" y="373.0" type="line"/>
      <point x="611.0109364179211" y="427.0" type="line"/>
      <point x="169.01093641792113" y="427.0" type="line"/>
    </contour>
  </outline>
</glyph>
<glyph name="greater" format="1">
  <advance width="660"/>
  <unicode hex="003E"/>
  <outline>
    <contour>
      <point x="158.71353175154826" y="62.0" type="line"/>
      <point x="587.1027803614313" y="264.0" type="line"/>
      <point x="592.4433320801222" y="302.0" type="line"/>
      <point x="556.5838729148246" y="303.0" type="line"/>
      <point x="167.28652266839416" y="123.0" type="line"/>
    </contour>
    <contour>
      <point x="213.9460797895881" y="455.0" type="line"/>
      <point x="552.5081887084552" y="274.0" type="line"/>
      <point x="587.9460253696457" y="270.0" type="line"/>
      <point x="594.4109037659557" y="316.0" type="line"/>
      <point x="222.80015237583876" y="518.0" type="line"/>
    </contour>
  </outline>
</glyph>
<glyph name="C" format="1">
  <advance width="626"/>
  <unicode hex="0043"/>
  <outline>
    <contour>
      <point x="118.48658797232504" y="345.0" type="curve"/>
      <point x="85.74057348666784" y="112.0"/>
      <point x="199.87567332238086" y="-8.0"/>
      <point x="359.87567332238086" y="-8.0" type="curve"/>
      <point x="438.87567332238086" y="-8.0"/>
      <point x="520.5135208675598" y="25.0"/>
      <point x="583.7892159579176" y="91.0" type="curve"/>
      <point x="540.9892268419061" y="128.0" type="line"/>
      <point x="493.82164427208414" y="77.0"/>
      <point x="428.88650090041716" y="49.0"/>
      <point x="367.88650090041716" y="49.0" type="curve"/>
      <point x="240.8865009004172" y="49.0"/>
      <point x="154.80004353595393" y="148.0"/>
      <point x="182.48658797232503" y="345.0" type="curve"/>
      <point x="210.17313240869615" y="542.0"/>
      <point x="326.0866750442329" y="641.0"/>
      <point x="451.0866750442329" y="641.0" type="curve" smooth="yes"/>
      <point x="514.086675044233" y="641.0"/>
      <point x="564.5731541766731" y="616.0"/>
      <point x="597.4055716068511" y="565.0" type="curve"/>
      <point x="650.6055824908397" y="602.0" type="line"/>
      <point x="605.8812775811974" y="668.0"/>
      <point x="540.0975026222692" y="698.0"/>
      <point x="459.0975026222692" y="698.0" type="curve" smooth="yes"/>
      <point x="301.0975026222692" y="698.0"/>
      <point x="151.23260245798224" y="578.0"/>
    </contour>
    <contour>
      <point x="447.97317594465005" y="690.0" type="move" name="top"/>
    </contour>
    <contour>
      <point x="351.0" y="0.0" type="move" name="bottom"/>
    </contour>
  </outline>
</glyph>
<glyph name="E" format="1">
  <advance width="596"/>
  <unicode hex="0045"/>
  <outline>
    <contour>
      <point x="110.0" y="0.0" type="line"/>
      <point x="172.0" y="0.0" type="line"/>
      <point x="268.97317594465005" y="690.0" type="line"/>
      <point x="206.97317594465008" y="690.0" type="line"/>
    </contour>
    <contour>
      <point x="140.0" y="0.0" type="line"/>
      <point x="526.0" y="0.0" type="line"/>
      <point x="533.5892050739292" y="54.0" type="line"/>
      <point x="147.58920507392915" y="54.0" type="line"/>
    </contour>
    <contour>
      <point x="185.25414877417003" y="322.0" type="line"/>
      <point x="520.2541487741701" y="322.0" type="line"/>
      <point x="527.5622721786943" y="374.0" type="line"/>
      <point x="192.5622721786944" y="374.0" type="line"/>
    </contour>
    <contour>
      <point x="229.38397087072093" y="636.0" type="line"/>
      <point x="610.383970870721" y="636.0" type="line"/>
      <point x="617.97317594465" y="690.0" type="line"/>
      <point x="236.97317594465008" y="690.0" type="line"/>
    </contour>
    <contour>
      <point x="407.97317594465005" y="690.0" type="move" name="top"/>
    </contour>
    <contour>
      <point x="311.0" y="0.0" type="move" name="bottom"/>
    </contour>
  </outline>
</glyph>
<glyph name="I" format="1">
  <advance width="432"/>
  <unicode hex="0049"/>
  <outline>
    <contour>
      <point x="80.0" y="0.0" type="line"/>
      <point x="352.0" y="0.0" type="line"/>
      <point x="359.02704173511955" y="50.0" type="line"/>
      <point x="87.02704173511957" y="50.0" type="line"/>
    </contour>
    <contour>
      <point x="169.9461342095305" y="640.0" type="line"/>
      <point x="441.9461342095305" y="640.0" type="line"/>
      <point x="448.97317594465005" y="690.0" type="line"/>
      <point x="176.97317594465008" y="690.0" type="line"/>
    </contour>
    <contour>
      <point x="185.0" y="0.0" type="line"/>
      <point x="247.0" y="0.0" type="line"/>
      <point x="343.97317594465005" y="690.0" type="line"/>
      <point x="281.97317594465005" y="690.0" type="line"/>
    </contour>
    <contour>
      <point x="312.97317594465005" y="690.0" type="move" name="top"/>
    </contour>
    <contour>
      <point x="216.0" y="0.0" type="move" name="bottom"/>
    </contour>
  </outline>
</glyph>
<glyph name="K" format="1">
  <advance width="615"/>
  <unicode hex="004B"/>
  <outline>
    <contour>
      <point x="110.0" y="0.0" type="line"/>
      <point x="172.0" y="0.0" type="line"/>
      <point x="268.97317594465005" y="690.0" type="line"/>
      <point x="206.97317594465008" y="690.0" type="line"/>
    </contour>
    <contour>
      <point x="196.35682029571655" y="216.0" type="line"/>
      <point x="669.97317594465" y="690.0" type="line"/>
      <point x="594.97317594465" y="690.0" type="line"/>
      <point x="208.02170957601504" y="299.0" type="line"/>
    </contour>
    <contour>
      <point x="310.9082104764322" y="348.0" type="line"/>
      <point x="512.0" y="0.0" type="line"/>
      <point x="590.0" y="0.0" type="line"/>
      <point x="357.09200720333746" y="392.0" type="line"/>
    </contour>
  </outline>
</glyph>
<glyph name="N" format="1">
  <advance width="726"/>
  <unicode hex="004E"/>
  <outline>
    <contour>
      <point x="110.0" y="0.0" type="line"/>
      <point x="172.0" y="0.0" type="line"/>
      <point x="268.97317594465005" y="690.0" type="line"/>
      <point x="206.97317594465008" y="690.0" type="line"/>
    </contour>
    <contour>
      <point x="224.97317594465008" y="690.0" type="line"/>
      <point x="531.0" y="0.0" type="line"/>
      <point x="598.0" y="0.0" type="line"/>
      <point x="291.97317594465005" y="690.0" type="line"/>
    </contour>
    <contour>
      <point x="554.0" y="0.0" type="line"/>
      <point x="616.0" y="0.0" type="line"/>
      <point x="712.97317594465" y="690.0" type="line"/>
      <point x="650.97317594465" y="690.0" type="line"/>
    </contour>
    <contour>
      <point x="473.97317594465005" y="690.0" type="move" name="top"/>
    </contour>
  </outline>
</glyph>
<glyph name="P" format="1">
  <advance width="616"/>
  <unicode hex="0050"/>
  <outline>
    <contour>
      <point x="110.0" y="0.0" type="line"/>
      <point x="172.0" y="0.0" type="line"/>
      <point x="268.97317594465005" y="690.0" type="line"/>
      <point x="206.97317594465008" y="690.0" type="line"/>
    </contour>
    <contour>
      <point x="175.13520867559785" y="250.0" type="line"/>
      <point x="354.1352086755979" y="250.0" type="line" smooth="yes"/>
      <point x="491.1352086755979" y="250.0"/>
      <point x="607.659557121194" y="332.0"/>
      <point x="627.054192310124" y="470.0" type="curve" smooth="yes"/>
      <point x="646.448827499054" y="608.0"/>
      <point x="552.97317594465" y="690.0"/>
      <point x="415.97317594465005" y="690.0" type="curve" smooth="yes"/>
      <point x="236.97317594465008" y="690.0" type="line"/>
      <point x="229.38397087072093" y="636.0" type="line"/>
      <point x="403.38397087072093" y="636.0" type="line" smooth="yes"/>
      <point x="513.3736081764205" y="636.0"/>
      <point x="578.0920616232798" y="577.0"/>
      <point x="563.054192310124" y="470.0" type="curve" smooth="yes"/>
      <point x="548.016322996968" y="363.0"/>
      <point x="466.7140510552265" y="304.0"/>
      <point x="356.724413749527" y="304.0" type="curve" smooth="yes"/>
      <point x="182.724413749527" y="304.0" type="line"/>
    </contour>
  </outline>
</glyph>
<glyph name="S" format="1">
  <advance width="615"/>
  <unicode hex="0053"/>
  <outline>
    <contour>
      <point x="72.36759345381044" y="88.0" type="line"/>
      <point x="124.65406170226218" y="26.0"/>
      <point x="200.87567332238086" y="-8.0"/>
      <point x="303.87567332238086" y="-8.0" type="curve"/>
      <point x="450.87567332238086" y="-8.0"/>
      <point x="554.5567767597627" y="68.0"/>
      <point x="569.8757277423233" y="177.0" type="curve"/>
      <point x="582.3838620308361" y="266.0"/>
      <point x="527.2217204600036" y="336.0"/>
      <point x="373.3893030298255" y="387.0" type="curve" smooth="yes"/>
      <point x="251.15147725262352" y="428.0"/>
      <point x="220.49202897131443" y="466.0"/>
      <point x="228.36231571464833" y="522.0" type="curve"/>
      <point x="237.63801080500616" y="588.0"/>
      <point x="307.50829754834007" y="644.0"/>
      <point x="409.50829754834007" y="644.0" type="curve"/>
      <point x="482.50829754834007" y="644.0"/>
      <point x="529.5731541766731" y="616.0"/>
      <point x="563.9515207885775" y="576.0" type="curve"/>
      <point x="608.4163991848875" y="622.0" type="line"/>
      <point x="564.1623592506022" y="670.0"/>
      <point x="504.0975026222692" y="698.0"/>
      <point x="417.0975026222692" y="698.0" type="curve"/>
      <point x="282.0975026222692" y="698.0"/>
      <point x="182.43261334197072" y="615.0"/>
      <point x="168.94069321054116" y="519.0" type="curve"/>
      <point x="157.41634476494505" y="437.0"/>
      <point x="202.12443551750397" y="378.0"/>
      <point x="341.5190162864916" y="331.0" type="curve" smooth="yes"/>
      <point x="486.6325153860744" y="282.0"/>
      <point x="516.7460144856572" y="233.0"/>
      <point x="508.17302356881135" y="172.0" type="curve"/>
      <point x="498.19462430494156" y="101.0"/>
      <point x="427.46487839631" y="46.0"/>
      <point x="311.46487839631" y="46.0" type="curve"/>
      <point x="222.46487839631" y="46.0"/>
      <point x="161.96218510678654" y="78.0"/>
      <point x="118.41084934601328" y="131.0" type="curve"/>
    </contour>
    <contour>
      <point x="415.97317594465005" y="690.0" type="move" name="top"/>
    </contour>
    <contour>
      <point x="305.0" y="0.0" type="move" name="bottom"/>
    </contour>
  </outline>
</glyph>
<glyph name="V" format="1">
  <advance width="582"/>
  <unicode hex="0056"/>
  <outline>
    <contour>
      <point x="116.97317594465008" y="690.0" type="line"/>
      <point x="265.0" y="0.0" type="line"/>
      <point x="309.0" y="0.0" type="line"/>
      <point x="313.3243375616076" y="45.0" type="line"/>
      <point x="181.97317594465008" y="690.0" type="line"/>
    </contour>
    <contour>
      <point x="281.3243375616076" y="45.0" type="line"/>
      <point x="277.0" y="0.0" type="line"/>
      <point x="317.0" y="0.0" type="line"/>
      <point x="658.97317594465" y="690.0" type="line"/>
      <point x="596.97317594465" y="690.0" type="line"/>
    </contour>
  </outline>
</glyph>
<glyph name="Y" format="1">
  <advance width="572"/>
  <unicode hex="0059"/>
  <outline>
    <contour>
      <point x="111.97317594465008" y="690.0" type="line"/>
      <point x="299.3514337166696" y="280.0" type="line"/>
      <point x="343.3514337166696" y="280.0" type="line"/>
      <point x="347.11360793946767" y="321.0" type="line"/>
      <point x="183.97317594465008" y="690.0" type="line"/>
    </contour>
    <contour>
      <point x="255.0" y="0.0" type="line"/>
      <point x="317.0" y="0.0" type="line"/>
      <point x="360.56765875774136" y="310.0" type="line"/>
      <point x="298.56765875774136" y="310.0" type="line"/>
    </contour>
    <contour>
      <point x="315.11360793946767" y="321.0" type="line"/>
      <point x="311.3514337166696" y="280.0" type="line"/>
      <point x="351.3514337166696" y="280.0" type="line"/>
      <point x="653.97317594465" y="690.0" type="line"/>
      <point x="585.97317594465" y="690.0" type="line"/>
    </contour>
    <contour>
      <point x="382.97317594465005" y="690.0" type="move" name="top"/>
    </contour>
  </outline>
</glyph>
<glyph name="Z" format="1">
  <advance width="597"/>
  <unicode hex="005A"/>
  <outline>
    <contour>
      <point x="70.90271505750044" y="42.0" type="line"/>
      <point x="111.0" y="0.0" type="line"/>
      <point x="615.0704608871497" y="648.0" type="line"/>
      <point x="574.97317594465" y="690.0" type="line"/>
    </contour>
    <contour>
      <point x="65.0" y="0.0" type="line"/>
      <point x="532.0" y="0.0" type="line"/>
      <point x="539.5892050739292" y="54.0" type="line"/>
      <point x="87.58920507392914" y="54.0" type="line"/>
      <point x="70.90271505750044" y="42.0" type="line"/>
    </contour>
    <contour>
      <point x="162.38397087072093" y="636.0" type="line"/>
      <point x="596.383970870721" y="636.0" type="line"/>
      <point x="615.0704608871497" y="648.0" type="line"/>
      <point x="620.97317594465" y="690.0" type="line"/>
      <point x="169.97317594465008" y="690.0" type="line"/>
    </contour>
    <contour>
      <point x="394.97317594465005" y="690.0" type="move" name="top"/>
    </contour>
  </outline>
</glyph>
<glyph name="underscore" format="1">
  <advance width="402"/>
  <unicode hex="005F"/>
  <outline>
    <contour>
      <point x="-7.027041735119571" y="-50.0" type="line"/>
      <point x="394.97295826488045" y="-50.0" type="line"/>
      <point x="402.0" y="0.0" type="line"/>
      <point x="0.0" y="0.0" type="line"/>
    </contour>
  </outline>
</glyph>
<glyph name="d" format="1">
  <advance width="561"/>
  <unicode hex="0064"/>
  <outline>
    <contour>
      <point x="95.13520867559785" y="250.0" type="curve" smooth="yes"/>
      <point x="70.54056260267936" y="75.0"/>
      <point x="143.87567332238086" y="-8.0"/>
      <point x="246.87567332238086" y="-8.0" type="curve" smooth="yes"/>
      <point x="311.87567332238086" y="-8.0"/>
      <point x="386.9189292145837" y="35.0"/>
      <point x="434.0702976273224" y="93.0" type="curve"/>
      <point x="441.23788019714436" y="144.0" type="line"/>
      <point x="389.6648892802985" y="83.0"/>
      <point x="323.6054192310124" y="47.0"/>
      <point x="262.6054192310124" y="47.0" type="curve" smooth="yes"/>
      <point x="191.6054192310124" y="47.0"/>
      <point x="135.87319520380763" y="105.82828282828285"/>
      <point x="156.8379128491098" y="255.0" type="curve" smooth="yes"/>
      <point x="178.17277467458732" y="406.80542986425337"/>
      <point x="248.49202897131443" y="466.0"/>
      <point x="333.4920289713144" y="466.0" type="curve" smooth="yes"/>
      <point x="411.4920289713144" y="466.0"/>
      <point x="464.04336473208764" y="413.0"/>
      <point x="449.56765875774136" y="310.0" type="curve"/>
      <point x="478.5514446006581" y="317.0" type="line"/>
      <point x="496.5406714425642" y="445.0"/>
      <point x="431.80015237583876" y="518.0"/>
      <point x="336.80015237583876" y="518.0" type="curve" smooth="yes"/>
      <point x="225.80015237583876" y="518.0"/>
      <point x="121.41634476494505" y="437.0"/>
    </contour>
    <contour>
      <point x="422.0" y="0.0" type="line"/>
      <point x="477.0" y="0.0" type="line"/>
      <point x="476.48109255339324" y="39.0" type="line" smooth="yes"/>
      <point x="476.5567767597626" y="68.0"/>
      <point x="478.50813428851285" y="89.0"/>
      <point x="483.14598183369174" y="122.0" type="curve" smooth="yes"/>
      <point x="568.7353501674481" y="731.0" type="line"/>
      <point x="506.76777848161464" y="717.0" type="line"/>
      <point x="422.86490016428695" y="120.0" type="line"/>
      <point x="420.47570597434634" y="103.0" type="line"/>
    </contour>
  </outline>
</glyph>
<glyph name="g" format="1">
  <advance width="556"/>
  <unicode hex="0067"/>
  <outline>
    <contour>
      <point x="90.83791284910981" y="255.0" type="curve" smooth="yes"/>
      <point x="67.17153031404044" y="86.60493827160494"/>
      <point x="140.98378584291675" y="7.0"/>
      <point x="243.98378584291675" y="7.0" type="curve" smooth="yes"/>
      <point x="308.98378584291675" y="7.0"/>
      <point x="383.88650090041716" y="49.0"/>
      <point x="430.61624680904873" y="104.0" type="curve"/>
      <point x="437.2216660400611" y="151.0" type="line"/>
      <point x="386.3296289294518" y="94.8452380952381"/>
      <point x="320.71353175154826" y="62.0"/>
      <point x="259.71353175154826" y="62.0" type="curve" smooth="yes"/>
      <point x="188.71353175154826" y="62.0"/>
      <point x="132.64353014485937" y="118.42487046632124"/>
      <point x="152.54061702262177" y="260.0" type="curve" smooth="yes"/>
      <point x="173.396610464334" y="408.3981042654028"/>
      <point x="243.49202897131443" y="466.0"/>
      <point x="328.4920289713144" y="466.0" type="curve" smooth="yes"/>
      <point x="406.4920289713144" y="466.0"/>
      <point x="459.04336473208764" y="413.0"/>
      <point x="444.56765875774136" y="310.0" type="curve"/>
      <point x="473.9730671047653" y="320.0" type="line"/>
      <point x="491.96229394667137" y="448.0"/>
      <point x="426.80015237583876" y="518.0"/>
      <point x="331.80015237583876" y="518.0" type="curve" smooth="yes"/>
      <point x="220.80015237583876" y="518.0"/>
      <point x="116.62872923529756" y="438.51119402985074"/>
    </contour>
    <contour>
      <point x="64.34049729874846" y="-147.0" type="line"/>
      <point x="108.4053539270815" y="-175.0"/>
      <point x="167.87561890243845" y="-193.0"/>
      <point x="229.87561890243845" y="-193.0" type="curve" smooth="yes"/>
      <point x="344.8756189024385" y="-193.0"/>
      <point x="444.0175984821094" y="-120.8360655737705"/>
      <point x="463.81081669404784" y="20.0" type="curve" smooth="yes"/>
      <point x="515.5298438645278" y="388.0" type="line"/>
      <point x="520.1676914097068" y="421.0"/>
      <point x="524.119048938457" y="442.0"/>
      <point x="532.1947331448264" y="471.0" type="curve" smooth="yes"/>
      <point x="543.6758256982196" y="510.0" type="line"/>
      <point x="488.6758256982196" y="510.0" type="line"/>
      <point x="458.2001197238733" y="407.0" type="line"/>
      <point x="455.8109255339327" y="390.0" type="line"/>
      <point x="404.5135208675598" y="25.0" type="line" smooth="yes"/>
      <point x="387.9783104809205" y="-92.65413533834585"/>
      <point x="317.60536481107" y="-138.0"/>
      <point x="226.60536481107" y="-138.0" type="curve" smooth="yes"/>
      <point x="175.60536481107" y="-138.0"/>
      <point x="133.57293649690345" y="-124.0"/>
      <point x="94.36753903386803" y="-97.0" type="curve"/>
    </contour>
    <contour>
      <point x="340.6758256982196" y="510.0" type="move" name="top"/>
    </contour>
  </outline>
</glyph>
<glyph name="i" format="1">
  <advance width="250"/>
  <unicode hex="0069"/>
  <outline>
    <contour>
      <point x="177.98939010173336" y="683.0" type="curve" smooth="yes"/>
      <point x="174.61641006887595" y="659.0"/>
      <point x="190.8055933748281" y="639.0"/>
      <point x="214.8055933748281" y="639.0" type="curve" smooth="yes"/>
      <point x="239.8055933748281" y="639.0"/>
      <point x="260.61641006887595" y="659.0"/>
      <point x="263.98939010173336" y="683.0" type="curve" smooth="yes"/>
      <point x="267.5029109692931" y="708.0"/>
      <point x="252.1825801223573" y="728.0"/>
      <point x="227.31372766334096" y="728.0" type="curve" smooth="yes"/>
      <point x="203.78913749940654" y="728.0"/>
      <point x="181.5029109692931" y="708.0"/>
    </contour>
    <contour>
      <point x="95.0" y="0.0" type="line"/>
      <point x="155.0" y="0.0" type="line"/>
      <point x="226.67582569821963" y="510.0" type="line"/>
      <point x="166.67582569821963" y="510.0" type="line"/>
    </contour>
    <contour>
      <point x="125.0" y="0.0" type="move" name="bottom"/>
    </contour>
  </outline>
</glyph>
<glyph name="q" format="1">
  <advance width="556"/>
  <unicode hex="0071"/>
  <outline>
    <contour>
      <point x="90.13520867559785" y="250.0" type="curve" smooth="yes"/>
      <point x="65.54056260267936" y="75.0"/>
      <point x="138.87567332238086" y="-8.0"/>
      <point x="241.87567332238086" y="-8.0" type="curve" smooth="yes"/>
      <point x="306.87567332238086" y="-8.0"/>
      <point x="381.9189292145837" y="35.0"/>
      <point x="429.0702976273224" y="93.0" type="curve"/>
      <point x="435.8162576930372" y="141.0" type="line"/>
      <point x="384.5243484455961" y="82.0"/>
      <point x="318.6054192310124" y="47.0"/>
      <point x="257.6054192310124" y="47.0" type="curve" smooth="yes"/>
      <point x="186.6054192310124" y="47.0"/>
      <point x="130.8973284784535" y="106.0"/>
      <point x="151.8379128491098" y="255.0" type="curve" smooth="yes"/>
      <point x="173.2001197238733" y="407.0"/>
      <point x="243.49202897131443" y="466.0"/>
      <point x="328.4920289713144" y="466.0" type="curve" smooth="yes"/>
      <point x="406.4920289713144" y="466.0"/>
      <point x="459.04336473208764" y="413.0"/>
      <point x="444.56765875774136" y="310.0" type="curve"/>
      <point x="473.9730671047653" y="320.0" type="line"/>
      <point x="491.96229394667137" y="448.0"/>
      <point x="426.80015237583876" y="518.0"/>
      <point x="331.80015237583876" y="518.0" type="curve" smooth="yes"/>
      <point x="220.80015237583876" y="518.0"/>
      <point x="116.41634476494505" y="437.0"/>
    </contour>
    <contour>
      <point x="373.4539963983313" y="-196.0" type="line"/>
      <point x="435.42156808416473" y="-182.0" type="line"/>
      <point x="515.5298438645278" y="388.0" type="line"/>
      <point x="520.1676914097068" y="421.0"/>
      <point x="524.119048938457" y="442.0"/>
      <point x="532.1947331448264" y="471.0" type="curve" smooth="yes"/>
      <point x="543.6758256982196" y="510.0" type="line"/>
      <point x="488.6758256982196" y="510.0" type="line"/>
      <point x="458.2001197238733" y="407.0" type="line"/>
      <point x="455.8109255339327" y="390.0" type="line"/>
    </contour>
  </outline>
</glyph>
<glyph name="t" format="1">
  <advance width="377"/>
  <unicode hex="0074"/>
  <outline>
    <contour>
      <point x="94.64878396310006" y="460.0" type="line"/>
      <point x="396.6487839631001" y="460.0" type="line"/>
      <point x="403.6758256982196" y="510.0" type="line"/>
      <point x="101.67582569821963" y="510.0" type="line"/>
    </contour>
    <contour>
      <point x="141.97301268482283" y="135.0" type="line" smooth="yes"/>
      <point x="129.18379672690523" y="44.0"/>
      <point x="173.87567332238086" y="-8.0"/>
      <point x="252.87567332238086" y="-8.0" type="curve"/>
      <point x="281.87567332238086" y="-8.0"/>
      <point x="317.0" y="0.0"/>
      <point x="343.8270308511311" y="13.0" type="curve"/>
      <point x="337.99461342095304" y="64.0" type="line"/>
      <point x="311.30812340452434" y="52.0"/>
      <point x="286.6054192310124" y="47.0"/>
      <point x="266.6054192310124" y="47.0" type="curve"/>
      <point x="220.6054192310124" y="47.0"/>
      <point x="193.25948093327457" y="73.0"/>
      <point x="202.39463518893" y="138.0" type="curve" smooth="yes"/>
      <point x="274.913705895364" y="654.0" type="line"/>
      <point x="212.9461342095305" y="640.0" type="line"/>
    </contour>
  </outline>
</glyph>
<glyph name="v" format="1">
  <advance width="466"/>
  <unicode hex="0076"/>
  <outline>
    <contour>
      <point x="86.67582569821963" y="510.0" type="line"/>
      <point x="207.0" y="0.0" type="line"/>
      <point x="253.0" y="0.0" type="line"/>
      <point x="256.34055171869085" y="38.0" type="line"/>
      <point x="151.67582569821963" y="510.0" type="line"/>
    </contour>
    <contour>
      <point x="224.34055171869088" y="38.0" type="line"/>
      <point x="221.0" y="0.0" type="line"/>
      <point x="259.0" y="0.0" type="line"/>
      <point x="522.6758256982196" y="510.0" type="line"/>
      <point x="460.6758256982196" y="510.0" type="line"/>
    </contour>
  </outline>
</glyph>
